<svg width="70" height="70" viewBox="0 0 70 70" fill="none" xmlns="http://www.w3.org/2000/svg">
<g clip-path="url(#clip0)">
<path d="M28.1526 35.1834C28.1526 38.864 31.1361 41.8475 34.8167 41.8475C38.4973 41.8475 41.4808 38.864 41.4808 35.1834C41.4808 31.5028 38.4973 28.5193 34.8167 28.5193C31.1361 28.5193 28.1526 31.5028 28.1526 35.1834Z" fill="#999999"/>
<path d="M19.2317 23.3928C19.552 22.5247 20.0631 21.739 20.7272 21.0941C21.3721 20.43 22.1573 19.9189 23.026 19.5986C23.7304 19.325 24.7887 18.9993 26.7379 18.9106C28.8464 18.8144 29.4786 18.7937 34.8167 18.7937C40.1554 18.7937 40.7876 18.8139 42.8956 18.91C44.8448 18.9993 45.9036 19.325 46.6075 19.5986C47.4761 19.9189 48.2618 20.43 48.9063 21.0941C49.5703 21.739 50.0814 22.5242 50.4023 23.3928C50.6759 24.0973 51.0016 25.1561 51.0903 27.1053C51.1864 29.2133 51.2072 29.8455 51.2072 35.1841C51.2072 40.5222 51.1864 41.1544 51.0903 43.263C51.0016 45.2122 50.6759 46.2704 50.4023 46.9749C50.0814 47.8435 49.5709 48.6287 48.9068 49.2737C48.2618 49.9377 47.4766 50.4488 46.608 50.7692C45.9036 51.0433 44.8448 51.3689 42.8956 51.4577C40.7876 51.5538 40.1559 51.574 34.8173 51.574C29.4781 51.574 28.8459 51.5538 26.7384 51.4577C24.7892 51.3689 23.7304 51.0433 23.026 50.7692C21.2824 50.0966 19.9043 48.7185 19.2317 46.9749C18.9581 46.2704 18.6324 45.2122 18.5432 43.263C18.447 41.1544 18.4268 40.5222 18.4268 35.1841C18.4268 29.8455 18.447 29.2133 18.5432 27.1053C18.6319 25.1561 18.9576 24.0973 19.2317 23.3928V23.3928ZM34.8167 45.4497C40.4869 45.4497 45.0833 40.8537 45.0833 35.1836C45.0833 29.5135 40.4869 24.9175 34.8167 24.9175C29.1471 24.9175 24.5507 29.5135 24.5507 35.1836C24.5507 40.8537 29.1471 45.4497 34.8167 45.4497ZM24.1448 26.9108C25.4697 26.9108 26.544 25.8366 26.544 24.5116C26.544 23.1867 25.4697 22.1125 24.1448 22.1125C22.8198 22.1125 21.7456 23.1867 21.7456 24.5116C21.7461 25.8366 22.8198 26.9108 24.1448 26.9108Z" fill="#999999"/>
<path d="M34.8167 0.366699C54.0424 0.366699 69.6333 15.9576 69.6333 35.1833C69.6333 54.4091 54.0424 70 34.8167 70C15.5909 70 4.33922e-05 54.4091 4.33922e-05 35.1833C4.33922e-05 15.9576 15.5909 0.366699 34.8167 0.366699ZM14.9449 43.4258C15.0416 45.554 15.38 47.007 15.8741 48.2789C16.9127 50.9644 19.0356 53.0873 21.7211 54.1259C22.9924 54.62 24.446 54.9579 26.5736 55.0551C28.7056 55.1523 29.3867 55.1757 34.8161 55.1757C40.2461 55.1757 40.9267 55.1523 43.0592 55.0551C45.1869 54.9579 46.6404 54.62 47.9117 54.1259C49.2462 53.6239 50.4543 52.8371 51.4531 51.8197C52.4699 50.8215 53.2567 49.6129 53.7587 48.2789C54.2528 47.0076 54.5912 45.554 54.6879 43.4264C54.7862 41.2939 54.809 40.6128 54.809 35.1833C54.809 29.7539 54.7862 29.0728 54.6884 26.9408C54.5917 24.8126 54.2539 23.3596 53.7598 22.0878C53.2578 20.7538 52.4704 19.5452 51.4531 18.5469C50.4548 17.5296 49.2462 16.7428 47.9122 16.2407C46.6404 15.7467 45.1874 15.4088 43.0592 15.3116C40.9272 15.2143 40.2461 15.191 34.8167 15.191C29.3872 15.191 28.7061 15.2143 26.5742 15.3121C24.446 15.4088 22.993 15.7467 21.7211 16.2402C20.3871 16.7422 19.1785 17.5296 18.1797 18.5469C17.1629 19.5457 16.3756 20.7538 15.8741 22.0878C15.3795 23.3596 15.0416 24.8126 14.9444 26.9408C14.8472 29.0728 14.8243 29.7539 14.8243 35.1833C14.8243 40.6128 14.8472 41.2939 14.9449 43.4258Z" fill="#999999"/>
</g>
<defs>
<clipPath id="clip0">
<rect width="69.6333" height="69.6333" fill="white" transform="matrix(-1 0 0 1 69.6333 0.366699)"/>
</clipPath>
</defs>
</svg>
