<svg width="70" height="70" viewBox="0 0 70 70" fill="none" xmlns="http://www.w3.org/2000/svg">
<g clip-path="url(#clip0)">
<path d="M34.8166 0.18335C15.5927 0.18335 0 15.7761 0 35C0 54.2239 15.5927 69.8166 34.8166 69.8166C54.0405 69.8166 69.6333 54.2239 69.6333 35C69.6333 15.7761 54.0405 0.18335 34.8166 0.18335ZM52.4741 38.7736C54.1117 40.3399 55.8205 41.8351 57.2445 43.6151C57.8853 44.3983 58.5261 45.1815 58.9533 46.1071C59.5941 47.3887 59.0245 48.8127 57.8853 48.8839H50.7653C48.9142 49.0263 47.4902 48.3143 46.2086 47.0327C45.2118 46.0359 44.2862 44.9679 43.3606 43.8999C43.0046 43.4727 42.5774 43.0455 42.079 42.7607C41.0822 42.1199 40.2278 42.3335 39.7294 43.3303C39.1598 44.3983 39.0174 45.5375 38.9462 46.6767C38.875 48.3855 38.3766 48.8127 36.6678 48.8839C33.0366 49.0263 29.6191 48.5279 26.4863 46.6767C23.7095 45.0391 21.5023 42.8319 19.6511 40.2687C15.9487 35.2848 13.1719 29.8024 10.6087 24.1776C10.0391 22.896 10.4663 22.2552 11.8903 22.184C14.2399 22.1128 16.5183 22.1128 18.8679 22.184C19.7935 22.184 20.4343 22.7536 20.7903 23.608C22.0719 26.6696 23.5671 29.66 25.4895 32.3656C25.9879 33.0776 26.5575 33.7896 27.2695 34.3592C28.1239 34.9288 28.6935 34.7152 29.1207 33.7896C29.3343 33.22 29.4767 32.5792 29.5479 31.9384C29.7615 29.8024 29.7615 27.6664 29.4055 25.5304C29.1919 24.1064 28.4799 23.252 27.1271 22.9672C26.4151 22.8248 26.5575 22.6112 26.8423 22.184C27.4119 21.5432 27.9815 21.116 29.0495 21.116H37.095C38.3766 21.4008 38.6614 21.8992 38.8038 23.1808V32.152C38.8038 32.6504 39.0174 34.1456 39.943 34.4304C40.655 34.644 41.1534 34.0744 41.5806 33.6472C43.503 31.5824 44.8558 29.1616 46.1374 26.6696C46.707 25.5304 47.1342 24.3912 47.6326 23.252C47.9886 22.3976 48.487 21.9704 49.4838 21.9704H57.2445C57.4581 21.9704 57.6717 21.9704 57.9565 22.0416C59.2381 22.2552 59.5941 22.8248 59.2381 24.1064C58.5973 26.1 57.3869 27.8088 56.1765 29.4464C54.8949 31.2264 53.4709 32.9352 52.1893 34.7864C50.9077 36.4952 50.9789 37.3496 52.4741 38.7736Z" fill="#999999"/>
</g>
<defs>
<clipPath id="clip0">
<rect width="69.6333" height="69.6333" fill="white" transform="translate(0 0.18335)"/>
</clipPath>
</defs>
</svg>
